<svg width="98" height="22" viewBox="0 0 98 22" fill="none" xmlns="http://www.w3.org/2000/svg">
<path d="M89.5773 20.8319V1.3999H95.0653V20.8319H89.5773ZM76.6373 11.5359V9.2959V7.0559H98.0053V11.5359H76.6373Z" fill="#272727"/>
<path d="M77.0767 20.832V6.496C77.0767 5.30133 77.338 4.21867 77.8607 3.248C78.3833 2.25867 79.1393 1.47467 80.1287 0.896C81.118 0.298666 82.3127 0 83.7127 0C84.758 0 85.682 0.168001 86.4847 0.504001C87.306 0.840001 87.9873 1.288 88.5287 1.848L85.1407 5.236C85.01 5.08667 84.842 4.984 84.6367 4.928C84.4313 4.85333 84.2167 4.816 83.9927 4.816C83.5633 4.816 83.218 4.94667 82.9567 5.208C82.6953 5.46933 82.5647 5.81467 82.5647 6.244V20.832H77.0767ZM74.2767 11.536V7.056H86.3447V11.536H74.2767Z" fill="#272727"/>
<path d="M48.9448 20.8319V7.05588H54.4328V20.8319H48.9448ZM54.4328 13.3839L51.8848 11.1159C52.5942 9.62255 53.4155 8.53055 54.3488 7.83988C55.3008 7.13055 56.4862 6.77588 57.9048 6.77588C58.5395 6.77588 59.0808 6.85055 59.5288 6.99988C59.9955 7.14921 60.3688 7.36388 60.6488 7.64388L57.5688 12.0119C57.4382 11.8625 57.2422 11.7412 56.9808 11.6479C56.7382 11.5359 56.4488 11.4799 56.1128 11.4799C55.5528 11.4799 55.1328 11.6479 54.8528 11.9839C54.5728 12.3012 54.4328 12.7679 54.4328 13.3839Z" fill="#272727"/>
<path d="M41.1112 20.8319V13.1039C41.1112 12.5626 40.9525 12.1519 40.6352 11.8719C40.3365 11.5733 39.9538 11.4239 39.4872 11.4239C39.1698 11.4239 38.8805 11.4893 38.6192 11.6199C38.3765 11.7506 38.1805 11.9466 38.0312 12.2079C37.9005 12.4506 37.8352 12.7493 37.8352 13.1039L35.7072 12.1519C35.7072 11.0319 35.9312 10.0706 36.3792 9.26794C36.8458 8.46527 37.4805 7.84927 38.2832 7.41994C39.1045 6.9906 40.0565 6.77594 41.1392 6.77594C42.2592 6.77594 43.2298 6.99994 44.0512 7.44794C44.8725 7.87727 45.4978 8.4746 45.9272 9.23994C46.3752 9.9866 46.5992 10.8546 46.5992 11.8439V20.8319H41.1112ZM32.3472 20.8319V0.335938H37.8352V20.8319H32.3472Z" fill="#272727"/>
<path d="M25.1825 21.168C23.6892 21.168 22.3452 20.86 21.1505 20.244C19.9558 19.628 19.0132 18.7786 18.3225 17.696C17.6318 16.5946 17.2865 15.3533 17.2865 13.972C17.2865 12.572 17.6318 11.3306 18.3225 10.248C19.0318 9.14664 19.9838 8.28797 21.1785 7.67197C22.3918 7.0373 23.7545 6.71997 25.2665 6.71997C26.3492 6.71997 27.3198 6.88797 28.1785 7.22397C29.0558 7.55997 29.8678 8.0733 30.6145 8.76397L27.1705 12.208C26.9278 11.984 26.6572 11.816 26.3585 11.704C26.0598 11.592 25.6958 11.536 25.2665 11.536C24.8185 11.536 24.4078 11.6386 24.0345 11.844C23.6798 12.0306 23.3905 12.3013 23.1665 12.656C22.9425 13.0106 22.8305 13.4306 22.8305 13.916C22.8305 14.4013 22.9425 14.8306 23.1665 15.204C23.3905 15.5586 23.6892 15.8386 24.0625 16.044C24.4358 16.2493 24.8372 16.352 25.2665 16.352C25.7518 16.352 26.1532 16.2773 26.4705 16.128C26.7878 15.9786 27.0678 15.7733 27.3105 15.512L30.7545 18.956C29.9518 19.7026 29.1118 20.2626 28.2345 20.636C27.3572 20.9906 26.3398 21.168 25.1825 21.168Z" fill="#272727"/>
<path d="M7.924 21.1681C6.22533 21.1681 4.74133 20.9254 3.472 20.4401C2.22133 19.9361 1.064 19.1427 0 18.0601L3.5 14.5601C4.228 15.2507 4.99333 15.7827 5.796 16.1561C6.59867 16.5107 7.45733 16.6881 8.372 16.6881C9.13733 16.6881 9.716 16.5761 10.108 16.3521C10.5 16.1094 10.696 15.7827 10.696 15.3721C10.696 14.9614 10.528 14.6254 10.192 14.3641C9.856 14.0841 9.408 13.8414 8.848 13.6361C8.30667 13.4121 7.7 13.1881 7.028 12.9641C6.37467 12.7401 5.72133 12.4694 5.068 12.1521C4.41467 11.8347 3.808 11.4521 3.248 11.0041C2.70667 10.5374 2.268 9.96806 1.932 9.29606C1.596 8.60539 1.428 7.76539 1.428 6.77606C1.428 5.48806 1.736 4.37739 2.352 3.44406C2.968 2.51073 3.836 1.80139 4.956 1.31606C6.076 0.812059 7.392 0.560059 8.904 0.560059C10.3973 0.560059 11.7787 0.802725 13.048 1.28806C14.336 1.75473 15.4 2.42672 16.24 3.30406L12.712 6.80406C12.096 6.20672 11.48 5.76806 10.864 5.48806C10.248 5.18939 9.576 5.04006 8.848 5.04006C8.26933 5.04006 7.80267 5.13339 7.448 5.32006C7.112 5.50673 6.944 5.78673 6.944 6.16006C6.944 6.55206 7.112 6.87873 7.448 7.14006C7.784 7.38273 8.22267 7.60673 8.764 7.81206C9.324 8.01739 9.93067 8.23206 10.584 8.45606C11.256 8.68006 11.9187 8.95073 12.572 9.26806C13.2253 9.56673 13.8227 9.95873 14.364 10.4441C14.924 10.9107 15.372 11.4987 15.708 12.2081C16.044 12.9174 16.212 13.7761 16.212 14.7841C16.212 16.8187 15.484 18.3961 14.028 19.5161C12.5907 20.6174 10.556 21.1681 7.924 21.1681Z" fill="#272727"/>
<path d="M67.3539 20.4679C68.5118 16.9255 70.8073 12.5483 72.3106 10.9807L73.0419 10.2274L71.8434 8.6598C70.3401 6.66464 69.5885 5.48383 69.2838 4.58805L69.04 3.87549L66.521 3.87549H64.002L63.7582 4.58805C63.4535 5.48383 62.7019 6.66464 61.1986 8.6598L60 10.2274L60.6501 10.8993C62.1331 12.3855 64.2051 16.2129 65.5053 19.9589C65.8506 20.9158 66.1553 21.7505 66.196 21.7709C66.2366 21.8116 66.2163 19.4092 66.1756 16.4369C66.1147 11.3675 66.0741 11.0011 65.7084 10.6346C65.2005 10.1256 65.2005 9.51487 65.7084 9.0059C66.2163 8.49693 66.8257 8.49693 67.3336 9.0059C67.8414 9.51487 67.8414 10.1053 67.3336 10.5939C66.9679 10.94 66.9273 11.3064 66.8663 16.3961C66.8257 19.3889 66.8054 21.8319 66.846 21.8319C66.8663 21.8319 67.0898 21.2212 67.3539 20.4679ZM68.1461 10.716C68.4509 10.0646 68.5118 9.73882 68.3696 9.37236C68.1461 8.78196 67.0288 7.78437 66.6022 7.78437C65.9725 7.78437 65.1396 8.39514 64.8146 9.1077C64.4692 9.82025 64.4692 9.86097 64.9771 10.8382C65.4646 11.7543 65.5053 12.0597 65.5053 14.2992C65.5053 15.6429 65.424 16.7422 65.3427 16.7422C65.2412 16.7422 64.8349 16.05 64.4083 15.2153C63.7785 13.9734 62.2143 11.4286 61.3611 10.3089C61.2189 10.146 61.5033 9.61667 62.194 8.68016C62.7628 7.90653 63.5144 6.76644 63.8801 6.15567C64.2254 5.54491 64.6724 4.91379 64.8552 4.79163C65.2412 4.46589 67.618 4.44553 68.1665 4.73056C68.3696 4.85271 68.7556 5.34132 68.979 5.80957C69.2228 6.27782 69.9541 7.41792 70.6042 8.33406C71.2746 9.22985 71.8027 10.0442 71.8027 10.1256C71.8027 10.2071 71.3965 10.8178 70.8886 11.4897C70.3807 12.1615 69.4869 13.6477 68.8978 14.7878L67.8414 16.844L67.7805 14.1974C67.7399 11.8561 67.7805 11.449 68.1461 10.716Z" fill="#272727"/>
<path d="M70.0009 2.21886C70.1635 1.93383 70.1431 1.77096 69.9197 1.58773C69.6556 1.38415 69.6556 1.30271 69.9197 1.0584C70.0822 0.895535 70.1635 0.63087 70.1025 0.468C69.9197 0.0201067 63.2159 0.0201067 63.0331 0.468C62.9721 0.63087 63.0534 0.895535 63.1956 1.01769C63.4394 1.24163 63.4394 1.34343 63.1956 1.60809C62.9315 1.91347 62.9315 1.99491 63.2159 2.27993C63.5003 2.5446 64.0691 2.60567 66.6694 2.60567C69.5337 2.60567 69.8181 2.56496 70.0009 2.21886ZM64.4551 1.66917C64.2723 1.60809 64.1301 1.42486 64.1301 1.26199C64.1301 1.03805 64.6176 0.97697 66.5678 0.97697C68.5383 0.97697 69.0055 1.03805 69.0055 1.26199C69.0055 1.42486 68.8836 1.60809 68.7414 1.64881C68.3758 1.81168 64.8411 1.81168 64.4551 1.66917Z" fill="#272727"/>
</svg>
